<?xml version="1.0" encoding="UTF-8" standalone="no"?>
<svg
   xmlns:osb="http://www.openswatchbook.org/uri/2009/osb"
   xmlns:dc="http://purl.org/dc/elements/1.1/"
   xmlns:cc="http://creativecommons.org/ns#"
   xmlns:rdf="http://www.w3.org/1999/02/22-rdf-syntax-ns#"
   xmlns:svg="http://www.w3.org/2000/svg"
   xmlns="http://www.w3.org/2000/svg"
   xmlns:xlink="http://www.w3.org/1999/xlink"
   id="svg8"
   version="1.1"
   viewBox="0 0 200 100"
   height="100mm"
   width="200mm">
  <defs
     id="defs2">
    <marker
       style="overflow:visible;"
       id="Arrow1Mend"
       refX="0.0"
       refY="0.0"
       orient="auto">
      <path
         transform="scale(0.4) rotate(180) translate(10,0)"
         style="fill-rule:evenodd;stroke:#57ace3;stroke-width:1pt;stroke-opacity:1;fill:#57ace3;fill-opacity:1"
         d="M 0.0,0.0 L 5.0,-5.0 L -12.5,0.0 L 5.0,5.0 L 0.0,0.0 z "
         id="path10335" />
    </marker>
    <marker
       style="overflow:visible"
       id="marker10589"
       refX="0.0"
       refY="0.0"
       orient="auto">
      <path
         transform="scale(0.8) translate(12.5,0)"
         style="fill-rule:evenodd;stroke:#57ace3;stroke-width:1pt;stroke-opacity:1;fill:#57ace3;fill-opacity:1"
         d="M 0.0,0.0 L 5.0,-5.0 L -12.5,0.0 L 5.0,5.0 L 0.0,0.0 z "
         id="path10326" />
    </marker>
    <linearGradient
       id="linearGradient10200">
      <stop
         style="stop-color:#57ace3;stop-opacity:1"
         offset="0"
         id="stop10196" />
      <stop
         style="stop-color:#e0437f;stop-opacity:0.89019608"
         offset="1"
         id="stop10198" />
    </linearGradient>
    <linearGradient
       osb:paint="solid"
       id="linearGradient8935">
      <stop
         id="stop8933"
         offset="0"
         style="stop-color:#373737;stop-opacity:1;" />
    </linearGradient>
    <linearGradient
       id="linearGradient5282">
      <stop
         id="stop5278"
         offset="0"
         style="stop-color:#814dd2;stop-opacity:1;" />
      <stop
         id="stop5280"
         offset="1"
         style="stop-color:#b46bd3;stop-opacity:0.89019608" />
    </linearGradient>
    <marker
       style="overflow:visible"
       id="Arrow1Lend"
       refX="0"
       refY="0"
       orient="auto">
      <path
         transform="matrix(-0.8,0,0,-0.8,-10,0)"
         style="fill-rule:evenodd;stroke:#000000;stroke-width:1.00000003pt"
         d="M 0,0 5,-5 -12.5,0 5,5 Z"
         id="path4997" />
    </marker>
    <marker
       style="overflow:visible"
       id="Arrow1Lstart"
       refX="0"
       refY="0"
       orient="auto">
      <path
         transform="matrix(0.8,0,0,0.8,10,0)"
         style="fill-rule:evenodd;stroke:#000000;stroke-width:1.00000003pt"
         d="M 0,0 5,-5 -12.5,0 5,5 Z"
         id="path4994" />
    </marker>
    <linearGradient
       gradientUnits="userSpaceOnUse"
       y2="53.285694"
       x2="-64.290207"
       y1="53.642838"
       x1="-119.13808"
       id="linearGradient5284"
       xlink:href="#linearGradient5282" />
    <linearGradient
       y2="55.071407"
       x2="-58.218777"
       y1="53.642838"
       x1="-119.13808"
       gradientUnits="userSpaceOnUse"
       id="linearGradient5300"
       xlink:href="#linearGradient5282" />
    <linearGradient
       y2="55.071407"
       x2="-58.218777"
       y1="53.642838"
       x1="-119.13808"
       gradientUnits="userSpaceOnUse"
       id="linearGradient5352"
       xlink:href="#linearGradient5282" />
    <linearGradient
       y2="53.285694"
       x2="-64.290207"
       y1="53.642838"
       x1="-119.13808"
       gradientUnits="userSpaceOnUse"
       id="linearGradient5354"
       xlink:href="#linearGradient5282" />
    <linearGradient
       y2="53.285694"
       x2="-64.290207"
       y1="53.642838"
       x1="-119.13808"
       gradientUnits="userSpaceOnUse"
       id="linearGradient4670"
       xlink:href="#linearGradient5282" />
    <linearGradient
       y2="53.285694"
       x2="-64.290207"
       y1="53.642838"
       x1="-119.13808"
       gradientUnits="userSpaceOnUse"
       id="linearGradient4678"
       xlink:href="#linearGradient5282" />
    <linearGradient
       gradientTransform="matrix(3.7865563,-0.0047396,0.01655021,3.7724911,0.1767767,-743.59466)"
       y2="227.8952"
       x2="192.22939"
       y1="227.8952"
       x1="109.73602"
       gradientUnits="userSpaceOnUse"
       id="linearGradient10134"
       xlink:href="#linearGradient10200" />
  </defs>
  <metadata
     id="metadata5">
    <rdf:RDF>
      <cc:Work
         rdf:about="">
        <dc:format>image/svg+xml</dc:format>
        <dc:type
           rdf:resource="http://purl.org/dc/dcmitype/StillImage" />
        <dc:title></dc:title>
        <dc:creator>
          <cc:Agent>
            <dc:title>(C) 2018 David Lettier</dc:title>
          </cc:Agent>
        </dc:creator>
      </cc:Work>
    </rdf:RDF>
  </metadata>
  <g
     transform="translate(0,-197)"
     id="layer1">
    <path
       d="m 132.06601,248.47691 v 25.06876 l 2.94142,9.76581 h 7.51427 c 8.89726,0 17.3421,-3.56874 17.3421,-17.59324 0,-14.37636 -8.79666,-17.24133 -18.09606,-17.24133 z m 8.24394,5.98155 h 2.61379 c 4.82563,0 8.39484,1.91012 8.39484,11.25977 0,9.24913 -3.31763,11.61169 -8.29407,11.61169 h -2.71456 z m -27.95075,-5.98155 -7.59592,25.18607 0.003,9.6485 h 5.63273 l 1.75958,-7.48947 h 10.1539 l 1.80971,7.48947 h 8.72195 l -4.27932,-14.21257 0.016,-0.005 -6.21822,-20.61735 z m 4.87567,5.98155 3.66955,15.38148 h -7.33909 z m -41.385799,-5.98137 v 34.83455 h 7.339086 v -12.76769 c 0,-6.43418 -0.653097,-11.05867 -1.055232,-14.22549 l 10.053132,26.99318 h 10.505823 0.003 l -0.001,-2.78846 -0.002,0.008 v -11.04016 l -5.3e-4,-2.46031 h 5.3e-4 v -18.55339 h -7.389133 v 14.07459 c 0,5.57964 0.653473,10.15378 1.105877,12.96873 L 86.103741,248.47709 Z m -66.4031819,0 -2.6137936,34.83455 h 8.0424025 l 0.603581,-13.52165 c 0.201068,-4.8759 0.200974,-9.19902 -0.150895,-14.32626 l 5.730399,24.17889 h 7.791257 l 5.378484,-24.17889 c -0.251338,4.32296 -0.150566,9.35012 0.100767,14.22601 l 0.603062,13.6219 h 8.093046 l -2.61379,-34.83456 H 29.954716 l -4.875673,23.62543 -5.228104,-23.62543 z m 49.0809429,-0.8549 c -9.802067,0 -15.68328,6.88659 -15.68328,18.24695 0,11.61167 5.881213,18.29707 15.68328,18.29707 9.852331,0 15.733924,-6.88647 15.733924,-18.29707 0,-11.61169 -5.881593,-18.24695 -15.733924,-18.24695 z m 0,6.03219 c 4.67483,0 7.087938,3.41802 7.087938,12.21476 0,8.84699 -2.36284,12.26488 -7.087938,12.26488 -4.524031,0 -7.037298,-3.41789 -7.037298,-12.26488 0,-8.79674 2.412733,-12.21476 7.037298,-12.21476 z"
       style="font-style:normal;font-variant:normal;font-weight:bold;font-stretch:normal;font-size:42.66666794px;font-family:'Fira Sans';-inkscape-font-specification:'Fira Sans Bold';text-align:start;letter-spacing:-2.850003px;word-spacing:0px;writing-mode:lr-tb;text-anchor:start;fill:#2b2b2b;fill-opacity:1;fill-rule:nonzero;stroke:#0f0f0f;stroke-width:0.26458332;stroke-linecap:butt;stroke-linejoin:round;stroke-miterlimit:4;stroke-dasharray:none;stroke-dashoffset:0;stroke-opacity:1"
       id="path4657" />
    <g
       aria-label=" &gt; "
       transform="matrix(1.1781329,0,0,1.1781329,271.19496,167.28142)"
       style="font-style:normal;font-variant:normal;font-weight:bold;font-stretch:normal;font-size:40px;font-family:'Fira Sans';-inkscape-font-specification:'Fira Sans Bold';text-align:start;letter-spacing:0.38999996px;word-spacing:0px;writing-mode:lr-tb;text-anchor:start;fill:none;fill-opacity:1;fill-rule:evenodd;stroke:url(#linearGradient4670);stroke-width:1.13385832;stroke-linecap:round;stroke-linejoin:miter;stroke-miterlimit:4;stroke-dasharray:none;stroke-dashoffset:0;stroke-opacity:1;paint-order:stroke fill markers"
       id="flowRoot4616" />
    <g
       aria-label="   &gt; "
       transform="matrix(1.1781329,0,0,1.1781329,268.90451,167.19108)"
       style="font-style:normal;font-variant:normal;font-weight:bold;font-stretch:normal;font-size:40px;font-family:'Fira Sans';-inkscape-font-specification:'Fira Sans Bold';text-align:start;letter-spacing:0.38999996px;word-spacing:0px;writing-mode:lr-tb;text-anchor:start;fill:none;fill-opacity:1;fill-rule:evenodd;stroke:url(#linearGradient4678);stroke-width:1.13385832;stroke-linecap:round;stroke-linejoin:miter;stroke-miterlimit:4;stroke-dasharray:none;stroke-dashoffset:0;stroke-opacity:1;paint-order:stroke fill markers"
       id="flowRoot4650" />
    <g
       aria-label="E"
       transform="matrix(1.1781329,0,0,1.1781329,258.78415,166.40418)"
       style="font-style:normal;font-variant:normal;font-weight:bold;font-stretch:normal;font-size:42.66666794px;font-family:'Fira Sans';-inkscape-font-specification:'Fira Sans Bold';text-align:start;letter-spacing:-2.850003px;word-spacing:0px;writing-mode:lr-tb;text-anchor:start;fill:#373737;fill-opacity:1;stroke:none;stroke-width:1px;stroke-linecap:butt;stroke-linejoin:miter;stroke-opacity:1"
       id="flowRoot4642" />
    <path
       d="m 75.849287,210.69008 v 18.55338 h 5.3e-4 l -5.3e-4,2.46032 v 11.04015 l -0.0021,-0.008 -0.0011,2.78846 h 0.0031 10.505818 l 5.727817,-15.37994 7.234184,-19.45464 h -6.879603 l -10.304798,27.04331 c 0.4524,-2.81495 1.105876,-7.38907 1.105876,-12.9687 v -14.07459 z m 25.443413,0 -5.690095,15.30345 c -0.147037,1.99205 -0.249597,4.23297 -0.249597,6.76341 v 12.7677 h 7.339082 v -34.83457 z m 23.97704,5.88046 0.85453,-5.88124 h -21.36346 v 34.83503 h 21.36346 v -5.9315 H 113.0046 v -8.89726 h 10.70687 v -5.78071 H 113.0046 v -8.34432 z M 43.009437,245.52332 40.395553,210.68829 H 29.940016 l -4.875902,23.62549 -5.227765,-23.6255 H 9.431079 L 6.8171912,245.52332 H 14.859916 L 15.46312,232.0015 c 0.201072,-4.8759 0.201072,-9.19886 -0.150801,-14.3261 l 5.730438,24.17843 h 7.791382 l 5.378577,-24.17843 c -0.251343,4.32296 -0.150802,9.34967 0.100494,14.22557 l 0.603205,13.62235 z m 15.502409,-35.68953 c -9.802067,0 -15.68328,6.8866 -15.68328,18.24694 0,11.6117 5.881213,18.29708 15.68328,18.29708 9.852331,0 15.733924,-6.88646 15.733924,-18.29708 0,-11.61168 -5.881593,-18.24694 -15.733924,-18.24694 z m 0,6.0322 c 4.67483,0 7.087938,3.41802 7.087938,12.21475 0,8.847 -2.36284,12.26489 -7.087938,12.26489 -4.524031,0 -7.037298,-3.41789 -7.037298,-12.26489 0,-8.79672 2.412733,-12.21475 7.037298,-12.21475 z"
       style="font-style:normal;font-variant:normal;font-weight:bold;font-stretch:normal;font-size:42.66666794px;font-family:'Fira Sans';-inkscape-font-specification:'Fira Sans Bold';text-align:start;letter-spacing:-2.850003px;word-spacing:0px;writing-mode:lr-tb;text-anchor:start;fill:#2b2b2b;fill-opacity:1;fill-rule:nonzero;stroke:#0f0f0f;stroke-width:0.26458332;stroke-linecap:butt;stroke-linejoin:bevel;stroke-miterlimit:4;stroke-dasharray:none;stroke-dashoffset:0;stroke-opacity:1"
       id="path4667" />
    <path
       id="text10004"
       transform="matrix(0.26458333,0,0,0.26458333,0,197)"
       d="m 648.5341,87.310007 c -9.7121,4.127281 -19.42418,8.254548 -29.13624,12.381802 0.0453,11.073141 0.0905,22.146271 0.13585,33.219381 10.56235,4.42211 21.12472,8.84421 31.68712,13.2663 M 633.36752,96.140968 c -4.23915,1.801771 -8.47831,3.603539 -12.71747,5.405302 0.0167,3.72718 0.0333,7.45435 0.05,11.18152 m 2.04302,-3.85006 c 0.0397,8.61454 0.0794,17.22908 0.11908,25.84362 14.76048,6.17481 29.52092,12.34963 44.28132,18.52444 M 632.90195,139.0934 c 25.71117,10.75354 51.42244,21.50716 77.13382,32.26084 1.22807,-2.85848 2.45614,-5.71696 3.68421,-8.57544 m -6.90261,9.20272 c 1.03894,0.43471 2.07789,0.86942 3.11683,1.30413 3.95555,-9.19321 7.91108,-18.38642 11.86659,-27.57964 -7.57971,-2.95242 -15.15943,-5.90484 -22.73917,-8.85727 m 2.15824,-2.09073 c -15.67825,-6.11232 -31.35655,-12.22458 -47.03491,-18.33676 12.36993,-5.10497 24.73982,-10.20989 37.10967,-15.31477 m -16.53251,25.20037 c -6.44424,-2.51117 -12.8885,-5.02234 -19.33276,-7.53351 22.69625,-9.36273 45.39238,-18.72545 68.0884,-28.088151 -0.29141,-0.632498 -0.58281,-1.264996 -0.87422,-1.897494 m -69.22838,29.392715 c -0.24128,-0.094 -0.48257,-0.18796 -0.72385,-0.28193 22.68902,-9.36125 45.37812,-18.72258 68.06732,-28.083988 -3.57014,-7.743386 -7.14027,-15.486781 -10.71039,-23.230186 m -23.22126,33.437724 c 10.77256,-4.446834 21.54514,-8.893648 32.31774,-13.340443 -0.57171,-1.240078 -1.14341,-2.480156 -1.71512,-3.720233 m 1.23863,9.141077 c 0.75978,-0.313671 1.51956,-0.627341 2.27934,-0.941012 -4.03208,-8.753337 -8.06417,-17.506664 -12.09627,-26.259983 -0.56183,0.238567 -1.12367,0.477135 -1.68551,0.715703 m 12.5016,22.097459 c 0.0802,-0.03313 0.1605,-0.06626 0.24075,-0.09939 -4.03607,-8.751509 -8.07213,-17.503012 -12.10817,-26.254508 -9.87001,4.191186 -19.74,8.38238 -29.60997,12.573582 m 12.85578,-2.389769 c -22.05754,9.364824 -44.11497,18.729734 -66.17231,28.094728 m -107.274,4.187127 c -0.84131,0.3573 -1.68261,0.7146 -2.52392,1.07191 0.0163,3.90357 0.0326,7.80715 0.049,11.71072 m -3.93823,-4.9983 c 0.0401,8.6513 0.0803,17.3026 0.12039,25.9539 19.88934,8.31229 39.77866,16.6246 59.66795,24.93692 m -4.00821,-7.74504 c 11.9072,4.98365 23.81441,9.96729 35.72164,14.95091 0.91916,-2.13701 1.83832,-4.27401 2.75748,-6.41102 m -16.85174,2.4761 c 4.93606,2.06386 9.87212,4.12772 14.80817,6.19159 3.9554,-9.19637 7.91078,-18.39274 11.86615,-27.5891 -15.16944,-5.91319 -30.33891,-11.82637 -45.50842,-17.73953 m -0.0175,-0.31222 c -9.09947,-3.54582 -18.19894,-7.09162 -27.29839,-10.63741 9.38846,-3.87537 18.77693,-7.75073 28.1654,-11.62607 m -3.45166,4.69425 C 582.61769,102.37262 598.07784,95.991254 613.53799,89.609887 610.07395,82.0933 606.6099,74.576713 603.14586,67.060124 m 13.27545,22.437871 c 0.0236,-0.0097 0.0473,-0.0195 0.0709,-0.02925 -4.03355,-8.751194 -8.0671,-17.502379 -12.10065,-26.253557 -13.39917,5.691875 -26.79835,11.383767 -40.19755,17.075676 m 45.83217,-4.772545 c -1.7876,-3.875989 -3.57519,-7.751978 -5.36278,-11.627969 -9.37578,3.983924 -18.75156,7.967844 -28.12733,11.95176 m 31.84948,-3.206604 c -1.78706,-3.876259 -3.57412,-7.752517 -5.36119,-11.628776 -18.00377,7.649915 -36.00753,15.299838 -54.01126,22.94977 m 26.05047,-5.71335 c -6.70982,2.853463 -13.41964,5.706914 -20.12947,8.560353 m 12.32275,-9.896003 c -17.37721,7.384846 -34.75442,14.769727 -52.13162,22.154645 m -34.54308,3.084334 c 6.67582,4.1e-4 13.35163,8.2e-4 20.02744,0.001 1.3e-4,-1.26754 2.6e-4,-2.535071 4e-4,-3.802607 m -9.40351,8.965447 c 2.67224,-6.9e-4 5.34448,-0.001 8.01672,-0.002 -0.002,-10.545713 -0.004,-21.091419 -0.006,-31.637124 -13.34915,-0.0035 -26.69828,-0.0069 -40.04738,-0.01038 m 38.46844,20.870619 c 8.9e-4,-7.92388 0.002,-15.847764 0.003,-23.77165 -0.53954,3e-6 -1.07909,7e-6 -1.61863,1e-5 m 2.93627,18.341405 c -5.6e-4,-6.302839 -0.001,-12.60568 -0.002,-18.908526 -15.4422,0.0027 -30.88439,0.0054 -46.32658,0.0081 m 45.48451,12.828552 c 9.6e-4,-4.350837 0.002,-8.701673 0.003,-13.052506 -20.90549,-0.0024 -41.81103,-0.0048 -62.71661,-0.0072 m 65.58699,-1.54598 c -17.31771,-0.0021 -34.63544,-0.0042 -51.95318,-0.0062 m 32.6192,6.513975 c -17.50497,0.0034 -35.00998,0.0067 -52.51502,0.0099 2.4e-4,1.894165 4.7e-4,3.78833 7.1e-4,5.682494 m 36.51675,-11.129932 c -13.26226,-0.0036 -26.52453,-0.0071 -39.78682,-0.01065 7.6e-4,10.540165 0.002,21.080346 0.002,31.620542 0.54277,-1.4e-4 1.08555,-2.8e-4 1.62833,-4.3e-4 m 1.41106,-28.98446 c -1.56444,-8.4e-5 -3.12888,-1.68e-4 -4.69332,-2.52e-4 -6.9e-4,10.5424 -0.001,21.084802 -0.002,31.627202 8.20467,-4.4e-4 16.40934,-8.7e-4 24.61401,-0.001 M 426.5625,75.431744 c -4e-5,0.260418 -7e-5,0.520835 -10e-5,0.781252 m 2.74229,1.077147 c 4.6e-4,4.94823 9.2e-4,9.896459 0.001,14.844686 m -5.18108,-9.621664 c -0.002,8.346092 -0.004,16.692179 -0.007,25.038265 10.40075,-5.5e-4 20.80152,-0.001 31.20231,-0.002 M 429.5625,79.743633 c 4.7e-4,7.466811 9.4e-4,14.933626 0.001,22.400447 22.87234,-0.002 45.74463,-0.005 68.61687,-0.007 m -69.06358,44.11522 c 0.002,6.03419 0.003,12.06836 0.005,18.10254 8.29248,0.002 16.58496,0.005 24.87742,0.007 m -23.34184,-3.12116 c 20.17874,0.001 40.35759,0.002 60.53655,0.003 m -23.77935,-1.18297 c 10.52815,-0.001 21.0563,-0.002 31.58447,-0.003 -0.002,-11.50253 -0.005,-23.00505 -0.007,-34.50757 -1.27582,-1.3e-4 -2.55165,-2.7e-4 -3.82747,-4e-4 m -20.02132,38.25354 c 6.77082,-4.3e-4 13.54163,-8.6e-4 20.31244,-0.001 m -7.31097,-4.31121 c 4.10849,-4.6e-4 8.21698,-9.2e-4 12.32546,-0.001 0.003,-11.50258 0.005,-23.00515 0.008,-34.50769 -0.5369,-6e-5 -1.0738,-1.2e-4 -1.6107,-1.8e-4 m 2.79501,32.87573 c 2.9e-4,-1.82248 5.7e-4,-3.64497 8.6e-4,-5.46745 m -3.39149,0.62821 c 6.8e-4,-9.24988 0.001,-18.49975 0.002,-27.74963 -16.2697,1.5e-4 -32.53942,3e-4 -48.80914,4.5e-4 m 17.20351,1.51492 c -12.6271,-0.003 -25.25422,-0.006 -37.88136,-0.008 m 26.95033,1.07868 c -8.46134,5.8e-4 -16.92269,0.001 -25.38406,0.002 m 15.02401,-4.6814 c -6.03953,-0.001 -12.07906,-0.002 -18.1186,-0.004 2e-5,0.9914 4e-5,1.9828 6e-5,2.97421 m 1.86366,1.09184 c -0.98597,0 -1.97193,0 -2.9579,0 -2.1e-4,11.5013 -4.3e-4,23.0026 -6.5e-4,34.50389 12.38231,0 24.76462,-1e-5 37.14693,-3e-5 M 643.21578,45.707549 539.24227,89.88274 m 107.52106,-0.09641 -5.60853,2.382893 m -6.93873,48.252292 85.18969,35.63824"
       style="font-style:normal;font-variant:normal;font-weight:800;font-stretch:normal;font-size:57.54236603px;line-height:125%;font-family:'Fira Sans';-inkscape-font-specification:'Fira Sans Ultra-Bold';text-align:start;letter-spacing:-1.70070565px;word-spacing:0px;writing-mode:lr-tb;text-anchor:start;fill:none;fill-opacity:1;stroke:url(#linearGradient10134);stroke-width:1;stroke-linecap:butt;stroke-linejoin:miter;stroke-miterlimit:4;stroke-dasharray:none;stroke-dashoffset:0;stroke-opacity:1" />
    <path
       transform="matrix(0.26458333,0,0,0.26458333,0,197)"
       style="font-style:normal;font-variant:normal;font-weight:800;font-stretch:normal;font-size:57.54236603px;line-height:125%;font-family:'Fira Sans';-inkscape-font-specification:'Fira Sans Ultra-Bold';text-align:start;letter-spacing:-1.70070565px;word-spacing:0px;writing-mode:lr-tb;text-anchor:start;fill:none;fill-opacity:1;fill-rule:nonzero;stroke:url(#linearGradient10134);stroke-width:2;stroke-linecap:butt;stroke-linejoin:bevel;stroke-miterlimit:4;stroke-dasharray:none;stroke-dashoffset:0;stroke-opacity:1;paint-order:markers fill stroke"
       d="m 650.1385,82.874465 c -10.14856,3.782654 -20.17926,7.700083 -30.11698,11.72366 3e-5,-0.006 -0.20482,33.232065 -0.20478,33.226075 10.46549,4.53108 20.80642,9.17856 30.98016,13.96537 M 633.88611,89.913445 c -4.37599,1.711249 -8.73217,3.445238 -13.07064,5.199586 10e-6,-4.22e-4 -0.0731,11.184859 -0.0731,11.184439 m 0.3725,-3.80674 c 2e-5,-0.002 -0.17666,25.85227 -0.17665,25.8502 14.60689,6.33968 28.96767,12.90811 42.96621,19.76778 m -31.32028,-14.07007 c 25.19819,11.26699 49.55187,23.27873 72.44648,36.3659 1.42471,-2.72961 2.86128,-5.45544 4.31003,-8.17738 m -6.9747,6.68407 c 0.92932,0.52537 1.85629,1.05248 2.78088,1.58133 4.58589,-8.78001 9.29471,-17.52088 14.13698,-26.21901 -6.95333,-3.77163 -14.01978,-7.44184 -21.18454,-11.01929 m 1.28755,-0.18569 c -14.81139,-7.42465 -30.04545,-14.44997 -45.57119,-21.15245 12.62262,-4.62919 25.39834,-9.03993 38.37684,-13.17341 m -18.736,22.83496 c -6.26352,-2.87301 -12.58606,-5.68603 -18.95852,-8.44437 23.14013,-8.47831 46.79246,-16.218619 71.2638,-22.85755 -0.22881,-0.662606 -0.45833,-1.325109 -0.68856,-1.987508 M 654.01463,113.139 c -2.7e-4,-1.2e-4 -0.7157,-0.30906 -0.71597,-0.30917 23.13517,-8.5031 46.78037,-16.274199 71.2423,-22.950019 -2.81543,-8.107892 -5.73743,-16.200324 -8.75838,-24.277065 m -26.0906,33.266668 C 700.9826,95.2376 712.42531,91.81337 724.05294,88.63561 723.6003,87.337599 723.14495,86.039985 722.6869,84.742768 m -0.61698,6.067377 c 0.81695,-0.226028 1.6348,-0.450842 2.45357,-0.674428 -3.17915,-9.162957 -6.49443,-18.306184 -9.93482,-27.429347 -0.62065,0.179639 -1.24074,0.359926 -1.86026,0.540855 m 11.24057,25.511777 c -3e-5,7e-6 0.25989,-0.07102 0.25987,-0.07101 -3.19279,-9.161294 -6.52126,-18.302817 -9.97442,-27.424233 -10.91387,3.159213 -21.65318,6.518244 -32.24401,10.04705 m 11.85645,-2.486221 c -23.89063,7.594747 -46.99669,16.092552 -69.6095,25.158099 m -0.43504,1.234896 c -0.86163,0.346106 -1.72255,0.693034 -2.58277,1.040765 0,-6.34e-4 -0.0817,11.715584 -0.0816,11.714954 m -1.1452,-4.62256 c 2e-5,-0.003 -0.15748,25.97022 -0.15747,25.96764 19.67826,8.52466 38.91018,17.46103 57.41168,26.96201 m -5.18017,-4.09637 c 11.17724,5.62986 22.1038,11.4573 32.71864,17.51516 1.06549,-2.04103 2.13762,-4.07996 3.21651,-6.11673 m -16.16776,-0.69646 c 4.49775,2.43586 8.94607,4.90905 13.34063,7.42189 4.58695,-8.78083 9.2969,-17.5225 14.14034,-26.22142 -13.91794,-7.55008 -28.28862,-14.69392 -42.99342,-21.50079 m 3.21074,0.98686 c -8.79479,-4.11181 -17.71249,-8.10054 -26.7275,-11.98114 9.58226,-3.52312 19.25253,-6.92117 29.03252,-10.1684 m -6.29117,3.40887 c 16.00699,-5.451544 32.29632,-10.509546 48.965,-15.059102 -2.7328,-7.869445 -5.56598,-15.724327 -8.49254,-23.564436 m 9.71391,23.600286 c 0,0 0.0757,-0.02053 0.0757,-0.02053 -3.16863,-9.16775 -6.47406,-18.315717 -9.90529,-27.443567 -14.81942,4.262317 -29.3167,8.895683 -43.55719,13.824889 m 47.96342,-1.486613 c -1.4697,-4.050884 -2.96505,-8.097851 -4.48508,-12.14087 -10.36572,2.9834 -20.57391,6.148352 -30.64696,9.469099 m 34.56573,1.426708 c -1.47522,-4.049947 -2.97598,-8.095973 -4.5013,-12.138051 -19.92422,5.742688 -39.26545,12.153458 -58.18225,19.049877 m 27.30054,-7.799146 c -7.20357,2.383909 -14.33829,4.847277 -21.41236,7.380658 m 13.91885,-6.240903 c -18.55555,6.311359 -36.66528,13.133939 -54.4718,20.303685 M 522.52817,91.33976 c -3.71543,1.71506 -7.42434,3.436 -11.12792,5.16192 -5e-5,-0.0011 0.51202,11.70155 0.51197,11.70043 m -1.1665,-9.974259 c -2e-5,7e-6 -0.1003,0.04677 -0.10032,0.04678 -4.8e-4,-0.01106 1.45486,33.189163 1.45438,33.178103 14.55619,5.39325 29.02314,10.86367 43.33703,16.46536 m -44.30747,-34.95594 c -1.2e-4,-0.003 0.7663,17.43323 0.76618,17.43044 2.49473,0.92408 4.98688,1.85041 7.47614,2.77928 m -7.7994,-15.73106 c -6e-5,-0.001 0.55121,12.57744 0.55114,12.57602 16.53443,6.12668 32.95588,12.35293 49.17089,18.75796 m -49.99946,-25.64531 c -2e-5,-4.2e-4 0.29602,6.72016 0.296,6.71974 21.69281,8.03096 43.19288,16.23183 64.28933,24.78141 m -55.73533,-22.29122 c 16.28128,6.07809 32.43879,12.26569 48.38274,18.6389 m -29.93723,-10.07554 c 13.09037,4.99891 26.07571,10.08848 38.90831,15.30914 4.92668,2.00718 9.8291,4.03142 14.70284,6.07511 m -42.55877,-18.2672 c 9.34563,3.62215 18.63091,7.2968 27.83828,11.03885 8.29429,3.37568 16.52059,6.79982 24.65785,10.28374 2.01069,-4.82106 4.0379,-9.63863 6.08313,-14.45221 m -27.09237,6.5496 c 6.76797,2.77515 13.48798,5.5838 20.1485,8.43215 3.83273,-9.20444 7.72504,-18.39642 11.68744,-27.57238 -2.66279,-1.06701 -5.33349,-2.1269 -8.01145,-3.18005 m -17.67348,24.80831 c -4e-4,-1.7e-4 0.71089,0.29523 0.71049,0.29506 m 0.1423,0.48985 c 4.49734,1.87003 8.97142,3.75596 13.41882,5.65962 m -10.07756,-3.99132 c 3.3045,1.3838 6.59589,2.77646 9.8728,4.17875 3.83071,-9.20427 7.72094,-18.39609 11.68121,-27.57188 -4.68156,-1.87698 -9.38775,-3.73191 -14.11494,-5.56693 m -3.47113,28.46889 c 2.5033,1.05562 4.99884,2.11653 7.48603,3.18308 3.84259,-9.20093 7.74586,-18.38896 11.72032,-27.56052 -12.40258,-4.98562 -24.97809,-9.81439 -37.65896,-14.52577 -3.82029,-1.41856 -7.65021,-2.82596 -11.48865,-4.22321 m 48.53743,21.60948 c -1.7e-4,3.9e-4 0.39562,-0.91482 0.39545,-0.91442 -12.31989,-4.95543 -24.81309,-9.75643 -37.41315,-14.4418 0,0 0,0 0,0 -0.002,-6.7e-4 -1.5944,-0.59165 -1.59619,-0.59232 m 14.92841,5.28033 c -4.43048,-1.68898 -8.87723,-3.36174 -13.33731,-5.02001 -10.81095,-4.01704 -21.70034,-7.94452 -32.64285,-11.80547 3.60406,-1.59938 7.21381,-3.19151 10.83032,-4.77558 m 3.29087,8.88546 c -4.50086,-1.62052 -9.01254,-3.22799 -13.53326,-4.82404 10.49312,-4.65332 21.03521,-9.24496 31.65268,-13.754413 6.66805,-2.833165 13.36682,-5.635506 20.10392,-8.398021 M 554.26188,116.4854 c -2.78093,-0.99529 -5.56581,-1.98581 -8.35423,-2.97194 3.53011,-1.56467 7.06571,-3.12228 10.60782,-4.67206 m -6.28217,1.12112 c 8.75211,-3.85687 17.54116,-7.66857 26.38242,-11.423276 6.20558,-2.636402 12.43772,-5.246109 18.70256,-7.821867 M 565.235,104.41462 c 1.69001,-0.73028 3.38168,-1.45864 5.07513,-2.185 m -3.7095,0.27093 c 3.32978,-1.43549 6.66623,-2.863461 10.01016,-4.283286 12.05562,-5.120857 24.21185,-10.14093 36.5136,-15.007053 -3.81958,-8.195982 -7.69977,-16.37731 -11.6316,-24.543711 m 7.66441,15.992954 c -2.66865,-5.659947 -5.36479,-11.312843 -8.08546,-16.958599 -6.13403,2.520537 -12.22664,5.07595 -18.28339,7.659824 m 21.84963,0.238651 c -1.20001,-2.513838 -2.40514,-5.026273 -3.61513,-7.537296 -5.45027,2.240821 -10.8679,4.509159 -16.25681,6.80051 m 12.33523,-6.475731 c -6.71383,2.781303 -13.37891,5.602978 -20.0026,8.456552 m 5.22342,-1.425141 c -2.06169,0.880321 -4.11923,1.763923 -6.17285,2.650552 -21.36486,9.204436 -42.34641,18.729808 -63.15655,28.416385 m 73.147,-32.390491 c -3.33946,1.415917 -6.66778,2.840803 -9.98587,4.27359 -14.08986,6.07131 -28.0133,12.282249 -41.83112,18.58698 m 34.13476,-15.102029 c -13.55068,5.91156 -26.95662,11.945573 -40.2726,18.06074 m 39.16746,-18.497686 c -10.0099,4.372426 -19.94106,8.811076 -29.81557,13.299296 m 19.59876,-7.374448 c -15.5269,6.890006 -30.88255,13.927354 -46.15087,21.048813 -1e-4,-0.0022 0.70303,16.025174 0.70293,16.022934 m 0.87606,-18.197656 c -1.8e-4,8.6e-5 -0.35811,0.166728 -0.35829,0.166814 m 1.0845,0.822688 c -0.004,0.0019 -1.6924,0.788526 -1.69655,0.790459 -1.3e-4,-0.0029 0.8415,19.229225 0.84138,19.226345 m 0.27161,-20.309876 c -7.4e-4,3.43e-4 -0.7139,0.332478 -0.71464,0.332822 -4.1e-4,-0.0093 1.44551,33.189744 1.44511,33.180454 11.28037,4.18384 22.50704,8.41503 33.65029,12.71877 m -35.32335,-28.4736 c -1.1e-4,-0.002 0.69833,15.95299 0.69823,15.95058 17.67847,6.5524 35.2262,13.2193 52.52889,20.09755 m -13.02772,-5.47913 c 6.6484,2.58631 13.26536,5.19988 19.84453,7.84608 m -14.54076,-5.47895 c 3.37538,1.32474 6.74215,2.65692 10.09948,3.99724 m -5.39576,-1.55957 c 5.19891,2.05665 10.37627,4.13181 15.52899,6.22812 7.99932,3.25904 15.93464,6.56309 23.78707,9.92231 3.57334,-8.58229 7.19846,-17.15376 10.88388,-25.71151 m -48.34699,8.62713 c 4.56751,1.81107 9.1183,3.63669 13.65027,5.47863 8.54576,3.47808 17.01964,7.00763 25.39866,10.60104 1.91828,-4.59494 3.85169,-9.18667 5.80151,-13.77474 m -41.52622,0.53198 c 3.46016,1.38089 6.91028,2.77041 10.34944,4.16935 8.32169,3.38981 16.57422,6.82834 24.73632,10.32703 3.83666,-9.20168 7.7334,-18.39069 11.70074,-27.56344 -5.91972,-2.37789 -11.87907,-4.72026 -17.87072,-7.03142 m 13.95401,4.36254 c -0.002,-8.8e-4 -1.79942,-0.71399 -1.80164,-0.71487 m 0.2527,1.27065 c -10.383,-4.11626 -20.88016,-8.12817 -31.45225,-12.05866 -10.56518,-3.92547 -21.20529,-7.76542 -31.89671,-11.54133 -0.0133,0.006 3.635,-1.60838 3.62171,-1.60249 m 48.06573,20.84643 c -4.71759,-1.82299 -9.45546,-3.6265 -14.21001,-5.41264 m 2.40102,-0.24272 c -2.66027,-1.00343 -5.32589,-2.00128 -7.99623,-2.99393 -10.42273,-3.87217 -20.91774,-7.66119 -31.46237,-11.38766 -0.0155,0.007 3.94408,-1.74398 3.92858,-1.73711 m 20.40457,11.06315 c -7.93034,-2.90965 -15.89953,-5.77414 -23.89767,-8.60246 5.07406,-2.24838 10.15954,-4.48219 15.25944,-6.69909 m -13.61623,6.67486 c -0.009,-0.003 -3.05456,-1.0798 -3.06326,-1.08288 10.62529,-4.71174 21.30067,-9.36051 32.05354,-13.925016 7.17818,-3.048345 14.3921,-6.060956 21.6512,-9.026612 m -8.83851,3.867272 c 7.88156,-3.275909 15.81224,-6.50137 23.80435,-9.661803 -0.90946,-1.951272 -1.82236,-3.901714 -2.73857,-5.851321 m 2.26344,3.123577 c -3.69749,-7.913834 -7.45102,-15.813948 -11.25251,-23.700094 -8.52807,3.498878 -16.97554,7.065434 -25.35735,10.682462 -4.89403,2.107372 -9.76789,4.231576 -14.62411,6.370693 M 445.26039,104.95921 c 8.95388,-0.41892 2.48979,-0.11655 11.44367,-0.53548 m -10.32304,0.17021 c 17.33763,-0.81148 34.68486,-1.62857 52.04397,-2.35972 0,2e-5 -0.46265,-11.003332 -0.46265,-11.003312 m -45.86181,13.509922 c 10.91924,-0.51039 21.84207,-1.01902 32.76909,-1.50304 m -10.72124,-0.82499 c 8.06799,-0.36738 16.13864,-0.72541 24.21221,-1.06487 0.002,0.0443 -1.33278,-31.644013 -1.33091,-31.599662 -6.59015,0.277373 -13.17046,0.56677 -19.74107,0.863273 m 2.25648,0.535649 c -7.33994,0.328149 -36.12847,1.680751 -43.46841,2.0089 m 35.77564,-0.870908 c -10.87947,0.497595 -31.75687,1.489268 -42.63634,1.986863 m 3.35972,-1.504318 c 0.3926,-0.01824 -9.26877,0.428031 -8.87616,0.409785 -0.001,-0.02231 1.44585,31.619878 1.44483,31.597578 0.10319,-0.005 5.20958,-0.23887 5.31278,-0.24357 m -0.204,-30.764537 c 0.20259,-0.0094 -6.92127,0.318259 -6.71869,0.308893 -9.8e-4,-0.02167 1.4404,31.616444 1.43942,31.594774 0.18506,-0.008 6.8961,-0.31721 7.08117,-0.32567 m -6.69282,-6.800653 c 0,-4e-6 0.31803,6.962623 0.31803,6.962613 0.24334,-0.0111 7.70728,-0.35517 7.95063,-0.3663 m -8.35399,-1.37173 c 0,0 0.0827,1.80758 0.0827,1.80758 3.05198,-0.1396 22.3444,-1.0416 25.39639,-1.1812 m 20.54411,-1.2031 c 8.98415,-0.412 17.97129,-0.81375 26.96173,-1.19252 0.002,0.0378 -1.33278,-31.63929 -1.33119,-31.601527 -10.17041,0.427735 -20.31779,0.884055 -30.44258,1.350874 m 30.68618,-0.727576 c -20.40162,0.859073 -40.71202,1.833698 -60.93492,2.777862 m 28.41956,-1.684043 c -4.22241,0.195401 -19.86403,0.929934 -24.08644,1.125334 m 22.1757,-1.068146 c -22.67755,1.053109 -16.70814,0.783245 -39.38568,1.836354 -1.5e-4,-0.0032 0.53526,11.761592 0.53512,11.758434 M 456.1832,71.641038 c -107.36134,5.003653 74.40662,-3.471827 -32.95473,1.531826 -1e-4,-0.0021 0.45249,9.905361 0.45239,9.903239 m 25.13451,-10.51949 c 11.4671,-0.537186 -36.69231,1.710473 -25.2252,1.173287 -0.001,-0.02348 1.44302,31.62008 1.44195,31.5966 6.6279,-0.30246 28.48629,-1.33026 35.11418,-1.63271 m -34.01894,1.55836 c 13.40919,-0.61298 30.78484,-1.43956 44.19403,-2.05254 m -9.57076,1.21557 c 12.84616,-0.59866 25.69743,-1.18654 38.55477,-1.72643 0.003,0.0687 -1.20262,-28.704057 -1.19974,-28.635325 m -20.19182,84.780915 c -0.21095,0.01 8.4496,-0.38049 8.23866,-0.3709 m -8.41928,0.49644 c 7.79043,-0.35497 15.56308,-0.70026 23.31815,-1.02742 0.007,0.17634 -1.454,-34.6511 -1.4466,-34.47476 -7.23283,0.30431 -14.47011,0.62392 -21.71203,0.95211 m 9.43944,34.49334 c 4.35639,-0.19382 8.70719,-0.3835 13.05244,-0.56757 0.003,0.0658 -1.45774,-34.5418 -1.45496,-34.47597 -0.0566,0.002 -5.57856,0.23811 -5.63518,0.2405 m 7.67487,28.58015 c 0,0 -0.41001,-9.7569 -0.41001,-9.7569 m 0.84075,6.75642 c 0.001,0.0345 -1.11266,-26.54189 -1.11121,-26.50737 -17.97928,0.75466 -35.9856,1.60511 -54.02154,2.44839 m 55.02012,23.80444 c 0.006,0.15291 -0.85594,-20.44976 -0.84954,-20.29685 m 0.21926,1.51521 c 3.2e-4,0.007 -0.35057,-8.37981 -0.35026,-8.37231 -10.56586,0.44235 -21.14047,0.91781 -31.72435,1.40548 m 9.07711,1.51928 c -17.08329,0.77653 -35.79512,1.67755 -52.8784,2.45408 -0.001,-0.0288 1.56889,34.50005 1.56758,34.4713 0.0578,-0.003 4.17177,-0.18968 4.22958,-0.1923 m -4.9898,-19.88838 c -3.9e-4,-0.009 0.87703,19.28511 0.87665,19.27657 18.52645,-0.84154 35.36,-1.65485 53.88645,-2.49639 m 11.79881,0.19044 c -0.15813,0.007 8.99192,-0.38652 8.83379,-0.37961 0,-8e-5 -1.43645,-34.11648 -1.43645,-34.11656 m -1.69544,33.35022 c -0.0262,0.001 3.81656,-0.16211 3.79034,-0.16098 0.0154,0.36787 -1.45891,-34.8442 -1.44351,-34.47633 -0.0214,9e-4 -3.51047,0.14833 -3.53187,0.14923 m 4.61961,19.10903 c 0.004,0.0846 -0.7849,-18.76637 -0.78136,-18.68176 -24.53906,1.02942 -49.13067,2.23808 -73.78157,3.36404 m 73.39732,-3.66621 c 0,0 -0.0474,-1.127 -0.0474,-1.127 -8.93561,0.37444 -17.87754,0.77245 -26.82607,1.18138 m 15.15017,0.12669 c -0.22973,0.0101 -9.6171,0.43046 -9.84682,0.44058 m 1.52062,0.345 c -16.3477,0.7365 -38.85642,1.81571 -55.20412,2.55222 -0.001,-0.024 1.47399,32.4516 1.4729,32.4276 m 40.34206,-35.16508 c -25.57791,1.18495 -15.88789,0.74325 -41.4658,1.92819 -7.8e-4,-0.0171 1.20903,26.53287 1.20826,26.51578 m 24.69612,-28.18016 c 9.38054,-0.43806 -35.6539,1.65382 -26.27337,1.21576 -0.001,-0.0299 1.57081,34.49549 1.56944,34.46557 0.0759,-0.003 4.73497,-0.21628 4.81082,-0.21973 m -2.79194,-33.16411 c 0.024,-0.001 -2.59955,0.11863 -2.57551,0.11753 -3.8e-4,-0.008 0.81071,17.75552 0.81033,17.74722 m -1.05401,-3.95996 c -4.1e-4,-0.009 0.893,19.58434 0.89259,19.57526 0.0996,-0.005 5.38625,-0.24533 5.48582,-0.24984 m -0.33746,0.29461 c 18.09098,-0.82865 28.05353,-1.30984 46.14451,-2.13849 m -30.04522,0.96991 c 1.36603,-0.0638 6.13168,-0.28688 7.4977,-0.35072 m -6.93486,1.30994 c 17.84352,-0.83316 35.59379,-1.67094 53.25327,-2.41376 0.001,0.025 -0.89264,-21.27401 -0.89159,-21.24898 M 645.80356,40.256829 c -23.8913,8.70051 -47.01068,18.108537 -69.65321,27.884575 -12.80286,5.515966 -25.46813,11.14719 -38.04142,16.859298 m 110.06361,-0.565846 c -1.94967,0.731567 -3.89505,1.468057 -5.83632,2.209266 m -8.16639,48.076008 c 27.78565,12.47688 54.52593,25.87031 79.39341,40.62548"
       id="path10202" />
    <text
       transform="rotate(23.112766)"
       id="text4786"
       y="151.86511"
       x="247.48691"
       style="font-style:normal;font-variant:normal;font-weight:normal;font-stretch:normal;font-size:2.11666656px;line-height:125%;font-family:'Fira Sans';-inkscape-font-specification:'Fira Sans';text-align:start;letter-spacing:0px;word-spacing:-0.26458332px;writing-mode:lr-tb;text-anchor:start;fill:#b2b2b2;fill-opacity:1;stroke:none;stroke-width:0.26458332px;stroke-linecap:butt;stroke-linejoin:miter;stroke-opacity:1"
       xml:space="preserve"><tspan
         style="font-style:normal;font-variant:normal;font-weight:normal;font-stretch:normal;font-size:2.11666656px;font-family:'Fira Sans';-inkscape-font-specification:'Fira Sans';word-spacing:-0.26458332px;fill:#b2b2b2;fill-opacity:1;stroke-width:0.26458332px"
         y="151.86511"
         x="247.48691"
         id="tspan4784">(C) DAVID LETTIER</tspan></text>
  </g>
</svg>
